/* XPM */
static char * enemy_xpm[] = {
"64 64 64 1",
" 	c #637796",
".	c #7385A2",
"+	c #7587A3",
"@	c #8292AD",
"#	c #8091AB",
"$	c #7F90AB",
"%	c #677B99",
"&	c #647897",
"*	c #8F9FB8",
"=	c #92A2BA",
"-	c #353535",
";	c #91A1B9",
">	c #7183A0",
",	c #9FADC3",
"'	c #A0AEC3",
")	c #4A4A4A",
"!	c #545454",
"~	c #A3B0C5",
"{	c #A6B3C8",
"]	c #A4B1C6",
"^	c #7486A2",
"/	c #9BAAC0",
"(	c #C0CBDC",
"_	c #B6C2D4",
":	c #97A6BD",
"<	c #7486A3",
"[	c #615C7C",
"}	c #B9C5D7",
"|	c #BDC8D9",
"1	c #BDA0B8",
"2	c #EDB2E0",
"3	c #FFCDEC",
"4	c #9DABC1",
"5	c #9EACC2",
"6	c #FFFFFF",
"7	c #979799",
"8	c #EBEBED",
"9	c #2E1E22",
"0	c #D9D9DD",
"a	c #7A8CA7",
"b	c #9CABC2",
"c	c #928A8C",
"d	c #95A4BC",
"e	c #899AB3",
"f	c #95A5BD",
"g	c #B6C2D5",
"h	c #7A8BA7",
"i	c #697C9A",
"j	c #8D9DB5",
"k	c #5C2E00",
"l	c #AAB7CB",
"m	c #C9C9CB",
"n	c #8192AC",
"o	c #8697B0",
"p	c #A6B4C8",
"q	c #99A8BF",
"r	c #A0AFC5",
"s	c #637797",
"t	c #6D7F9D",
"u	c #6C7F9C",
"v	c #7386A1",
"w	c #8798B1",
"x	c #6B7E9C",
"y	c #6A7D9B",
" .++++++++++++++++++++++++++++++++++++++++++++@@@@@@@@@@@@@@##$%",
"&*=======================-------------------=================;*>",
"&;,''''''''''''''''''----))))!!!!!))))))))))----'''''''''''~{]=^",
"&/(((((((((((((((((((----))))!!!!!))))))))))----(((((((((((((_:<",
"&/(((((((((((((((((((----))))!!!!!))))))))))----(((((((((((((_:<",
"&/((((((((((((((((---)!!!!![[[[[[[!)))-----)))))--(((((((((((_:<",
"&/((((((((((((((((---)!!!!![[[[[[[!)))-----)))))--(((((((((((_:<",
"&/((((((((((((((--)))!!!![[[[[[[[[[!!!!!)))-----(((((((((((((}:<",
"&/((((((((((((((--)))!!!![[[[[[[[[[!!!!!)))-----(((((((((((((|/<",
"&/((((((((((((((--)))!!!![[[[[[[[[[!!!!!)))-----((((((((((((((/<",
"&/(((((((((((((-))!!!![[[[[[[[[[[[[[[[!!!!!)-(((((((((((((((((/<",
"&/(((((((((((((-11111![[[[[[[[[[[[[[[[!!1111-(((((((((((((((((/<",
"&/(((((((((((((-11111![[[[[[[[[[[[[[[[!!1111-(((((((((((((((((/<",
"&/(((((((((-----1122222223333333333222222221------((((((((((((/<",
"&/(((((((((-----1122222223333333333222222221------((((((((((((/<",
"&/(((((((((-----1122222223333333333222222221------((((((((((((/<",
"&/((((-----)))))!!!!!2333333333333333322!!!!))))))----((((((((/<",
"&/(---))))))!!!![[[[[[[[[[[[[[[[[[[[[[[[[[[[!!!!))))))---(((((/<",
"&/(---))))))!!!![[[[[[[[[[[[[[[[[[[[[[[[[[[[!!!!))))))---(((((/<",
"&/(---))))))!!!![[[[[[[[[[[[[[[[[[[[[[[[[[[[!!!!))))))---(((((/<",
"&/-)))))!!!!!!![[[[[[[[[[[[!!!!!!![[[[[[[[[[[!!!!!!!!))))-((((/<",
"&/(-----))))!!!!!!!!!)----------------))!!!!!!!!)))))----(((((/<",
"&/(-----))))!!!!!!!!!)----------------))!!!!!!!!)))))----(((((4<",
"&/(-----))))!!!!!!!!!)----------------))!!!!!!!!)))))----(((((5<",
"&/((((((--------------6666666666666666---------------((((((((('<",
"&/((((((--------------6666666666666666---------------((((((((('<",
"&/(((((((((788866666699996666666666999996666688877(((((((((((('<",
"&/(((((((((788866666699996666666666999996666688877(((((((((((('<",
"&/(((((((((788866666699996666666666999996666688877(((((((((((('<",
"&/(((((((((788866666609996666666666000996666688877(((((((((((('<",
"a=bbbbbbbbb7888666666c9996666666666ccc996666688877bbbbbbbbbbbbde",
"&fggggggggg7888666666c9996666666666ccc996666688877ggggggggggggbh",
"&/(((((((((7888666666c9996666666666ccc996666688877(((((((((((('<",
"&/(((((((((788866666699996666666666999996666688877(((((((((((('<",
"ij(((((((((7888666666kkkk6666666666kkkkk6666688877(((((((((((('<",
"ij(((((((((7888666666kkkk6666666666kkkkk6666688877(((((((((((('<",
"ij(((((((((7888666666kkkk6666666666kkkkk6666688877(((((((((((('<",
"ij(((((((((788866666666666666666666666666666688877((((((((((((~<",
"ij(((((((((788866666666666666666666666666666688877(((((((((((({<",
"ij(((((((((788886666666666666666666666666666888877((((((((((((l<",
"ij(((((((((70008776666mmm6666666666mmm666667800077((((((((((((l<",
"ij(((((((((70008776666mmm6666666666mmm666667800077((((((((((((l<",
"ij(((((((((70008776666mmm6666666666mmm666667800077((((((((((((l<",
"ij(((((((((7mmm877666677766666666667776666678mmm77((((((((((((l<",
"ij((((((((((777077888877766666666667778888870777((((((((((((((l<",
"ij((((((((((777077888877766666666667778888870777((((((((((((((ln",
"ij((((((((((777077888877766666666667778888870777((((((((((((((ln",
"ij((((((((((777m0077778888888888888888777770m777((7777777(((((ln",
"ij((((((((((777m0077778888888888888888777770m777((7777777(((((ln",
"ij(((((((((((((7mm0008888888888888888888000m777777mmmmmmm7((((ln",
"ij(((((((((((((7mm0008888888888888888888000m777777mmmmmmm7((((ln",
"ij(((((((((((((7mm0008888888888888888888000m777777mmmmmmm7((((ln",
"ij(((((((((((((7mmmmm0888888888888888800mmmmmmmmmmmmm77777777(ln",
"ij((((((((((((((77mmmmmmm0000000000mmmmmmmmmmmmmmm777(((((((((ln",
"ij((((((((((((((77mmmmmmm0000000000mmmmmmmmmmmmmmm777(((((((((ln",
"ij((((((((((((((77mmmmmmm0000000000mmmmmmmmmmmmmmm777(((((((((ln",
"ij((((((((((((((((777mmmmmmmmmmmmmmmmmmmmmmmmmmm77((((((((((((ln",
"ij((((((((((((((((777mmmmmmmmmmmmmmmmmmmmmmmmmmm77((((((((((((ln",
"ij(((((((((((((((((((7777mmmmmmmmmmmmmmmmmmm7777((((((((((((((ln",
"ij(((((((((((((((((((7777mmmmmmmmmmmmmmmmmmm7777((((((((((((((ln",
"ij(((((((((((((((((((((((7777777777777777777((((((((((((((((((ln",
"ij(((((((((((((((((((((((7777777777777777777((((((((((((((((((ln",
"%ollllllllllllllllllllllllllllpqrlllllllllllllllllllllllllllll4$",
"st<<<<<<<<<<<<<<<<<<<<<<<uuuuuvwxuuuuuuuuuuuuuuuuuuuuuuuuuuuuuy&"};
