/* XPM */
static char * player04_xpm[] = {
"64 64 76 1",
" 	c #637796",
".	c #7385A2",
"+	c #7587A3",
"@	c #8292AD",
"#	c #8091AB",
"$	c #7F90AB",
"%	c #677B99",
"&	c #647897",
"*	c #8F9FB8",
"=	c #92A2BA",
"-	c #92A1B9",
";	c #91A1B9",
">	c #7183A0",
",	c #9FADC3",
"'	c #A0AEC3",
")	c #97A7BD",
"!	c #96A5BD",
"~	c #9CABC1",
"{	c #A3B0C5",
"]	c #A6B3C8",
"^	c #A4B1C6",
"/	c #7486A2",
"(	c #9BAAC0",
"_	c #C0CBDC",
":	c #ADB9CD",
"<	c #A6B5CA",
"[	c #B6C3D6",
"}	c #B6C2D4",
"|	c #97A6BD",
"1	c #7486A3",
"2	c #3F3F3F",
"3	c #4F4F4F",
"4	c #63605E",
"5	c #B9C5D7",
"6	c #BDC8D9",
"7	c #8A7059",
"8	c #9AA9FF",
"9	c #C1C7FF",
"0	c #DFDEFF",
"a	c #9DABC1",
"b	c #9EACC2",
"c	c #404040",
"d	c #5D5D5D",
"e	c #534721",
"f	c #D7906E",
"g	c #7D7D7D",
"h	c #7A8CA7",
"i	c #9CABC2",
"j	c #95A4BC",
"k	c #899AB3",
"l	c #95A5BD",
"m	c #B6C2D5",
"n	c #7A8BA7",
"o	c #697C9A",
"p	c #8D9DB5",
"q	c #9D704C",
"r	c #5C5C5A",
"s	c #55595C",
"t	c #424242",
"u	c #8A8666",
"v	c #60898E",
"w	c #AAB7CB",
"x	c #B1AB8E",
"y	c #C9C2A5",
"z	c #8192AC",
"A	c #737373",
"B	c #909090",
"C	c #696969",
"D	c #8697B0",
"E	c #505050",
"F	c #A0AFC5",
"G	c #637797",
"H	c #6D7F9D",
"I	c #6B7E9C",
"J	c #6C7F9C",
"K	c #6A7D9B",
" .++++++++++++++++++++++++++++++++++++++++++++@@@@@@@@@@@@@@##$%",
"&*=============================--============================;*>",
"&;,''''''''''''''''''''''''''')!~''''''''''''''''''''''''''{]^=/",
"&(____________________________:<[____________________________}|1",
"&(________________________22222222222222_____________________}|1",
"&(________________________22222222222222_____________________}|1",
"&(____________________2222333344444433332222_________________}|1",
"&(____________________2222333344444433332222_________________5|1",
"&(__________________22333344444444444444333322_______________6(1",
"&(__________________22333344444444444444333322________________(1",
"&(________________223333444477777777774444333322______________(1",
"&(________________223333444477777777774444333322______________(1",
"&(________________223344447777777777777744443322______________(1",
"&(________________223344447777777777777744443322______________(1",
"&(________________223344777777777777777777443322______________(1",
"&(________________223344777777777777777777443322______________(1",
"&(__________222222888844777777777777777777448888222222________(1",
"&(__________222222888844777777777777777777448888222222________(1",
"&(________2233333388999999990000000000999999998833333322______(1",
"&(________2233333388999999990000000000999999998833333322______(1",
"&(______22334444444444999900000000000000999944444444443322____(1",
"&(______22334444444444999900000000000000999944444444443322____(1",
"&(________2233447777777777777777777777777777777777443322______a1",
"&(________2233447777777777777777777777777777777777443322______b1",
"&(__________222233334444777777777777777777444433332222________'1",
"&(__________222233334444777777777777777777444433332222________'1",
"&(__________ccdd2222222222333333333333332222222222ddcc________'1",
"&(__________ccdd2222222222333333333333332222222222ddcc________'1",
"&(__________eeffddddggggggggggggggggggggggggggddddffee________'1",
"&(__________eeffddddggggggggggggggggggggggggggddddffee________'1",
"h=iiiiiiiiiieeffccddddggddggggggggggggggddggddddccffeeiiiiiiiijk",
"&lmmmmmmmmmmeeffccddddggddggggggggggggggddggddddccffeemmmmmmmmin",
"&(____________eeeeccddddddggddggggggddggddddddcceeee__________'1",
"&(____________eeeeccddddddggddggggggddggddddddcceeee__________'1",
"op______________eeqqccccddddddddddddddddddccccqqee____________'1",
"op______________eeqqccccddddddddddddddddddccccqqee____________'1",
"op________________rrrrssccddccddddddccddccssrrrr______________'1",
"op________________rrrrssccddccddddddccddccssrrrr______________{1",
"op______________ttrruuuuuussvvvvvvvvvvssuuuuuurrtt____________]1",
"op______________ttrruuuuuussvvvvvvvvvvssuuuuuurrtt____________w1",
"op____________ttvvrruuxxxxyyyyyyyyyyyyyyxxxxuurrvvtt__________w1",
"op____________ttvvrruuxxxxyyyyyyyyyyyyyyxxxxuurrvvtt__________w1",
"op____________ttrruurruuxxxxyyyyyyyyyyxxxxuurruuxxtt__________w1",
"op____________ttrruurruuxxxxyyyyyyyyyyxxxxuurruuxxtt__________w1",
"op____________ttrrxxuuuuuuxxxxxxxxxxxxxxuuuuuuxxxxtt__________w1",
"op____________ttrrxxuuuuuuxxxxxxxxxxxxxxuuuuuuxxxxtt__________wz",
"op____________ttrrxxxxxxyyyyyyxxxxxxyyyyyyxxxxxxyyuu__________wz",
"op____________ttrrxxxxxxyyyyyyxxxxxxyyyyyyxxxxxxyyuu__________wz",
"op______________rruuxxxxxxyyyyyyyyyyyyyyxxxxxxxxyyxx__________wz",
"op______________rruuxxxxxxyyyyyyyyyyyyyyxxxxxxxxyyxx__________wz",
"op______________rruuuuuuxxxxyyyyyyyyyyyyxxxxxxxxyyyyrr________wz",
"op______________rruuuuuuxxxxyyyyyyyyyyyyxxxxxxxxyyyyrr________wz",
"op______________rruuuuxxxxyyyyyyxxyyyyyyxxuuxxxxyyyyuu________wz",
"op______________rruuuuxxxxyyyyyyxxyyyyyyxxuuxxxxyyyyuu________wz",
"op______________rruuuuxxxxyyyyyyxxyyyyyyyyuuxxxxyyyyxxrr______wz",
"op______________rruuuuxxxxyyyyyyxxyyyyyyyyuuxxxxyyyyxxrr______wz",
"op______________rruuuuxxxxxxxxyyxxxxyyyyyyxxuuxxxxyyxxrr______wz",
"op______________rruuuuxxxxxxxxyyxxxxyyyyyyxxuuxxxxyyxxrr______wz",
"op________________rruuxxuuuuuuuuxxxxxxyyyyxxuuuuuurrrr________wz",
"op________________rruuxxuuuuuuuuxxxxxxyyyyxxuuuuuurrrr________wz",
"op__________________rruuAABBBBCCuurrrrrrrrrrrrrrrr____________wz",
"op__________________rruuAABBBBCCuurrrrrrrrrrrrrrrr____________wz",
"%DwwwwwwwwwwwwwwwwwwwwEEBBBBBBCCFwwwwwwwwwwwwwwwwwwwwwwwwwwwwwa$",
"GH11111111111111111111EEBBBBBBCCIJJJJJJJJJJJJJJJJJJJJJJJJJJJJJK&"};
