/* XPM */
static char * player02_xpm[] = {
"64 64 91 1",
" 	c #637796",
".	c #7385A2",
"+	c #7587A3",
"@	c #8292AD",
"#	c #8091AB",
"$	c #7F90AB",
"%	c #677B99",
"&	c #647897",
"*	c #8F9FB8",
"=	c #92A2BA",
"-	c #92A1B9",
";	c #91A1B9",
">	c #7183A0",
",	c #9FADC3",
"'	c #A0AEC3",
")	c #97A7BD",
"!	c #96A5BD",
"~	c #9CABC1",
"{	c #A3B0C5",
"]	c #A6B3C8",
"^	c #A4B1C6",
"/	c #7486A2",
"(	c #9BAAC0",
"_	c #C0CBDC",
":	c #ADB9CD",
"<	c #A6B5CA",
"[	c #B6C3D6",
"}	c #B6C2D4",
"|	c #97A6BD",
"1	c #7486A3",
"2	c #3F3F3F",
"3	c #4F4F4F",
"4	c #63605E",
"5	c #B9C5D7",
"6	c #BDC8D9",
"7	c #8A7059",
"8	c #9AA9FF",
"9	c #C1C7FF",
"0	c #DFDEFF",
"a	c #9DABC1",
"b	c #9EACC2",
"c	c #5D5D5D",
"d	c #404040",
"e	c #534721",
"f	c #EEBE93",
"g	c #FFE1AF",
"h	c #7D7D7D",
"i	c #7A8CA7",
"j	c #9CABC2",
"k	c #D7906E",
"l	c #95A4BC",
"m	c #899AB3",
"n	c #95A5BD",
"o	c #B6C2D5",
"p	c #7A8BA7",
"q	c #BAA376",
"r	c #DDC293",
"s	c #9D704C",
"t	c #697C9A",
"u	c #8D9DB5",
"v	c #A6A6A6",
"w	c #AAB7CB",
"x	c #5C5C5A",
"y	c #8A8666",
"z	c #C9C2A5",
"A	c #B1AB8E",
"B	c #68C6C1",
"C	c #8192AC",
"D	c #55595C",
"E	c #60898E",
"F	c #424242",
"G	c #676767",
"H	c #6E6E6E",
"I	c #969696",
"J	c #505050",
"K	c #696969",
"L	c #878787",
"M	c #B0BDD2",
"N	c #909090",
"O	c #737373",
"P	c #8697B0",
"Q	c #A6B4C8",
"R	c #99A8BF",
"S	c #A0AFC5",
"T	c #637797",
"U	c #6D7F9D",
"V	c #6C7F9C",
"W	c #7386A1",
"X	c #8798B1",
"Y	c #6B7E9C",
"Z	c #6A7D9B",
" .++++++++++++++++++++++++++++++++++++++++++++@@@@@@@@@@@@@@##$%",
"&*=============================--============================;*>",
"&;,''''''''''''''''''''''''''')!~''''''''''''''''''''''''''{]^=/",
"&(____________________________:<[____________________________}|1",
"&(____________________22222222222222_________________________}|1",
"&(____________________22222222222222_________________________}|1",
"&(________________2222333344444433332222_____________________}|1",
"&(________________2222333344444433332222_____________________5|1",
"&(______________22333344444444444444333322___________________6(1",
"&(______________22333344444444444444333322____________________(1",
"&(____________223333444477777777774444333322__________________(1",
"&(____________223333444477777777774444333322__________________(1",
"&(____________223344447777777777777744443322__________________(1",
"&(____________223344447777777777777744443322__________________(1",
"&(____________223344777777777777777777443322__________________(1",
"&(____________223344777777777777777777443322__________________(1",
"&(______222222888844777777777777777777448888222222____________(1",
"&(______222222888844777777777777777777448888222222____________(1",
"&(____2233333388999999990000000000999999998833333322__________(1",
"&(____2233333388999999990000000000999999998833333322__________(1",
"&(__22334444444444999900000000000000999944444444443322________(1",
"&(__22334444444444999900000000000000999944444444443322________(1",
"&(____2233447777777777777777777777777777777777443322__________a1",
"&(____2233447777777777777777777777777777777777443322__________b1",
"&(______222233334444777777777777777777444433332222____________'1",
"&(______222233334444777777777777777777444433332222____________'1",
"&(__________2222222222333333333333332222222222ccdd____________'1",
"&(__________2222222222333333333333332222222222ccdd____________'1",
"&(__________eeffggggffffffffgghhcceeeecchhcchhccdd____________'1",
"&(__________eeffggggffffffffgghhcceeeecchhcchhccdd____________'1",
"i=jjjjjjjjjjeekkffffffffffffffcceeffggeehhccccccddjjjjjjjjjjjjlm",
"&nooooooooooeekkffffffffffffffcceeffggeehhccccccddoooooooooooojp",
"&(__________eeffggffqqeeeerrggddffssggeeccccccdd______________'1",
"&(__________eeffggffqqeeeerrggddffssggeeccccccdd______________'1",
"tu__________eekkggeeeerrggggggggggssffeeccccdd________________'1",
"tu__________eekkggeeeerrggggggggggssffeeccccdd________________'1",
"tu__________ddhhvvggffggggggggggffkkeeccccdd__________________'1",
"tu__________ddhhvvggffggggggggggffkkeeccccdd__________________{1",
"tu__________ddhhhhvvkkffgggggghhkkkkssccdd____________________]1",
"tu__________ddhhhhvvkkffgggggghhkkkkssccdd____________________w1",
"tu__________ddcccchhvvccvvvvhhkkkkssssddxxxxxx________________w1",
"tu__________ddcccchhvvccvvvvhhkkkkssssddxxxxxx________________w1",
"tu____________ddcccccccchhccddeeeeeeyyzzzzAAyyxx______________w1",
"tu____________ddcccccccchhccddeeeeeeyyzzzzAAyyxx______________w1",
"tu____________ddccvvhhccddddyyyyAAAAAABBBBzzAAyyxx____________w1",
"tu____________ddccvvhhccddddyyyyAAAAAABBBBzzAAyyxx____________wC",
"tu______________ddhhccddyyAAzzzzAAAABBDDBBAAzzyyxx____________wC",
"tu______________ddhhccddyyAAzzzzAAAABBDDBBAAzzyyxx____________wC",
"tu______________ddccddxxyyyyAAAAAABBEEFFDDyyzzAAyyxx__________wC",
"tu______________ddccddxxyyyyAAAAAABBEEFFDDyyzzAAyyxx__________wC",
"tu________________dd____FFFFDDEEEEEEDDGGFFDDzzAAyyxx__________wC",
"tu________________dd____FFFFDDEEEEEEDDGGFFDDzzAAyyxx__________wC",
"tu________________________HHIIGGGGGGGGEEDDFFzzzzAAyyxx________wC",
"tu________________________HHIIGGGGGGGGEEDDFFzzzzAAyyxx________wC",
"tu________________________FFDDDDEEBBBBBBEEBBAAzzAAyyxx________wC",
"tu________________________FFDDDDEEBBBBBBEEBBAAzzAAyyxx________wC",
"tu______________________FFDDDDEEEEEEBBBBBBEEGGzzxxxx__________wC",
"tu______________________FFDDDDEEEEEEBBBBBBEEGGzzxxxx__________wC",
"tu______________________JJKKFFFFFFFFFFGGGGLLLLxxKKJJ__________wC",
"tu______________________JJKKFFFFFFFFFFGGGGLLLLxxKKJJ__________wC",
"tu________________________JJJJJJM_____JJJJNNNNOOKKJJ__________wC",
"tu________________________JJJJJJM_____JJJJNNNNOOKKJJ__________wC",
"%PwwwwwwwwwwwwwwwwwwwwwwwwwwwwQRSwwwwwwwwwJJJJJJJJwwwwwwwwwwwwa$",
"TU11111111111111111111111VVVVVWXYVVVVVVVVVJJJJJJJJVVVVVVVVVVVVZ&"};
