/* XPM */
static char * player03_xpm[] = {
"64 64 88 1",
" 	c #637796",
".	c #7385A2",
"+	c #7587A3",
"@	c #8292AD",
"#	c #8091AB",
"$	c #7F90AB",
"%	c #677B99",
"&	c #647897",
"*	c #8F9FB8",
"=	c #92A2BA",
"-	c #92A1B9",
";	c #91A1B9",
">	c #7183A0",
",	c #9FADC3",
"'	c #A0AEC3",
")	c #97A7BD",
"!	c #96A5BD",
"~	c #9CABC1",
"{	c #A3B0C5",
"]	c #A6B3C8",
"^	c #A4B1C6",
"/	c #7486A2",
"(	c #9BAAC0",
"_	c #C0CBDC",
":	c #ADB9CD",
"<	c #A6B5CA",
"[	c #B6C3D6",
"}	c #B6C2D4",
"|	c #97A6BD",
"1	c #7486A3",
"2	c #3F3F3F",
"3	c #4F4F4F",
"4	c #63605E",
"5	c #B9C5D7",
"6	c #BDC8D9",
"7	c #8A7059",
"8	c #9AA9FF",
"9	c #C1C7FF",
"0	c #DFDEFF",
"a	c #9DABC1",
"b	c #9EACC2",
"c	c #404040",
"d	c #5D5D5D",
"e	c #7D7D7D",
"f	c #534721",
"g	c #FFE1AF",
"h	c #EEBE93",
"i	c #7A8CA7",
"j	c #9CABC2",
"k	c #D7906E",
"l	c #95A4BC",
"m	c #899AB3",
"n	c #95A5BD",
"o	c #B6C2D5",
"p	c #7A8BA7",
"q	c #9D704C",
"r	c #DDC293",
"s	c #BAA376",
"t	c #697C9A",
"u	c #8D9DB5",
"v	c #A6A6A6",
"w	c #AAB7CB",
"x	c #5C5C5A",
"y	c #8A8666",
"z	c #B1AB8E",
"A	c #C9C2A5",
"B	c #68C6C1",
"C	c #8192AC",
"D	c #60898E",
"E	c #55595C",
"F	c #424242",
"G	c #676767",
"H	c #969696",
"I	c #6E6E6E",
"J	c #505050",
"K	c #878787",
"L	c #737373",
"M	c #909090",
"N	c #696969",
"O	c #8697B0",
"P	c #A6B4C8",
"Q	c #99A8BF",
"R	c #637797",
"S	c #6D7F9D",
"T	c #6C7F9C",
"U	c #7386A1",
"V	c #8798B1",
"W	c #6A7D9B",
" .++++++++++++++++++++++++++++++++++++++++++++@@@@@@@@@@@@@@##$%",
"&*=============================--============================;*>",
"&;,''''''''''''''''''''''''''')!~''''''''''''''''''''''''''{]^=/",
"&(____________________________:<[____________________________}|1",
"&(____________________________22222222222222_________________}|1",
"&(____________________________22222222222222_________________}|1",
"&(________________________2222333344444433332222_____________}|1",
"&(________________________2222333344444433332222_____________5|1",
"&(______________________22333344444444444444333322___________6(1",
"&(______________________22333344444444444444333322____________(1",
"&(____________________223333444477777777774444333322__________(1",
"&(____________________223333444477777777774444333322__________(1",
"&(____________________223344447777777777777744443322__________(1",
"&(____________________223344447777777777777744443322__________(1",
"&(____________________223344777777777777777777443322__________(1",
"&(____________________223344777777777777777777443322__________(1",
"&(______________222222888844777777777777777777448888222222____(1",
"&(______________222222888844777777777777777777448888222222____(1",
"&(____________2233333388999999990000000000999999998833333322__(1",
"&(____________2233333388999999990000000000999999998833333322__(1",
"&(__________22334444444444999900000000000000999944444444443322(1",
"&(__________22334444444444999900000000000000999944444444443322(1",
"&(____________2233447777777777777777777777777777777777443322__a1",
"&(____________2233447777777777777777777777777777777777443322__b1",
"&(______________222233334444777777777777777777444433332222____'1",
"&(______________222233334444777777777777777777444433332222____'1",
"&(______________ccdd2222222222333333333333332222222222________'1",
"&(______________ccdd2222222222333333333333332222222222________'1",
"&(______________ccddeeddeeddffffddeegghhhhhhhhgggghhff________'1",
"&(______________ccddeeddeeddffffddeegghhhhhhhhgggghhff________'1",
"i=jjjjjjjjjjjjjjccddddddeeffgghhffddhhhhhhhhhhhhhhkkffjjjjjjjjlm",
"&nooooooooooooooccddddddeeffgghhffddhhhhhhhhhhhhhhkkffoooooooojp",
"&(________________ccddddddffggqqhhccggrrffffsshhgghhff________'1",
"&(________________ccddddddffggqqhhccggrrffffsshhgghhff________'1",
"tu__________________ccddddffhhqqggggggggggrrffffggkkff________'1",
"tu__________________ccddddffhhqqggggggggggrrffffggkkff________'1",
"tu____________________ccddddffkkhhgggggggggghhggvveecc________'1",
"tu____________________ccddddffkkhhgggggggggghhggvveecc________{1",
"tu______________________ccddqqkkkkeegggggghhkkvveeeecc________]1",
"tu______________________ccddqqkkkkeegggggghhkkvveeeecc________w1",
"tu__________________xxxxxxccqqqqkkkkeevvvvddvveeddddcc________w1",
"tu__________________xxxxxxccqqqqkkkkeevvvvddvveeddddcc________w1",
"tu________________xxyyzzzzzzyyffffffccddeeddddddddcc__________w1",
"tu________________xxyyzzzzzzyyffffffccddeeddddddddcc__________w1",
"tu______________xxzzAABBBBBBzzAAzzyyyyccccddeevvddcc__________w1",
"tu______________xxzzAABBBBBBzzAAzzyyyyccccddeevvddcc__________wC",
"tu____________xxzzAADDBBBBEEBBzzAAAAAAzzyyccddeecc____________wC",
"tu____________xxzzAADDBBBBEEBBzzAAAAAAzzyyccddeecc____________wC",
"tu__________xxyyAAEEDDDDEEFFDDBBzzzzzzyyyyxxccddcc____________wC",
"tu__________xxyyAAEEDDDDEEFFDDBBzzzzzzyyyyxxccddcc____________wC",
"tu________xxyyzzAAFFEEEEFFGGEEDDDDDDEEFFFF____cc______________wC",
"tu________xxyyzzAAFFEEEEFFGGEEDDDDDDEEFFFF____cc______________wC",
"tu______xxyyzzAAFFFFFFFFEEDDGGGGGGGGHHII______________________wC",
"tu______xxyyzzAAFFFFFFFFEEDDGGGGGGGGHHII______________________wC",
"tu______xxyyzzAAFFFFEEEEDDBBBBBBBBDDEEFF______________________wC",
"tu______xxyyzzAAFFFFEEEEDDBBBBBBBBDDEEFF______________________wC",
"tu________xxzzAAxxFFFFEEDDDDDDBBBBBBDDEE______________________wC",
"tu________xxzzAAxxFFFFEEDDDDDDBBBBBBDDEE______________________wC",
"tu__________xxzzxxJJFFFFJJGGGGKKKKGGLLMMJJ____________________wC",
"tu__________xxzzxxJJFFFFJJGGGGKKKKGGLLMMJJ____________________wC",
"tu____________xx____JJJJJJJJJJJJNNLLMMMMJJ____________________wC",
"tu____________xx____JJJJJJJJJJJJNNLLMMMMJJ____________________wC",
"%OwwwwwwwwwwwwwwwwwwwwwwwwwwwwPQJJJJJJJJwwwwwwwwwwwwwwwwwwwwwwa$",
"RS11111111111111111111111TTTTTUVJJJJJJJJTTTTTTTTTTTTTTTTTTTTTTW&"};
