/* XPM */
static char * player01_xpm[] = {
"64 64 84 1",
" 	c #637796",
".	c #7385A2",
"+	c #7587A3",
"@	c #8292AD",
"#	c #8091AB",
"$	c #7F90AB",
"%	c #677B99",
"&	c #647897",
"*	c #8F9FB8",
"=	c #92A2BA",
"-	c #92A1B9",
";	c #91A1B9",
">	c #7183A0",
",	c #9FADC3",
"'	c #A0AEC3",
")	c #3F3F3F",
"!	c #A3B0C5",
"~	c #A6B3C8",
"{	c #A4B1C6",
"]	c #7486A2",
"^	c #9BAAC0",
"/	c #C0CBDC",
"(	c #B6C2D4",
"_	c #97A6BD",
":	c #7486A3",
"<	c #4F4F4F",
"[	c #63605E",
"}	c #B9C5D7",
"|	c #8A7059",
"1	c #BDC8D9",
"2	c #9AA9FF",
"3	c #C1C7FF",
"4	c #DFDEFF",
"5	c #9DABC1",
"6	c #9EACC2",
"7	c #404040",
"8	c #5D5D5D",
"9	c #534721",
"0	c #D7906E",
"a	c #EEBE93",
"b	c #FFE1AF",
"c	c #7A8CA7",
"d	c #9CABC2",
"e	c #9D704C",
"f	c #CFA67D",
"g	c #BAA376",
"h	c #95A4BC",
"i	c #899AB3",
"j	c #95A5BD",
"k	c #B6C2D5",
"l	c #7A8BA7",
"m	c #DDC293",
"n	c #697C9A",
"o	c #8D9DB5",
"p	c #424242",
"q	c #55595C",
"r	c #8A8666",
"s	c #7D7D7D",
"t	c #A6A6A6",
"u	c #60898E",
"v	c #AAB7CB",
"w	c #68C6C1",
"x	c #B1AB8E",
"y	c #8192AC",
"z	c #5C5C5A",
"A	c #676767",
"B	c #969696",
"C	c #505050",
"D	c #878787",
"E	c #737373",
"F	c #696969",
"G	c #B0BDD2",
"H	c #909090",
"I	c #8697B0",
"J	c #A6B4C8",
"K	c #99A8BF",
"L	c #A0AFC5",
"M	c #637797",
"N	c #6D7F9D",
"O	c #7386A1",
"P	c #8798B1",
"Q	c #6B7E9C",
"R	c #6C7F9C",
"S	c #6A7D9B",
" .++++++++++++++++++++++++++++++++++++++++++++@@@@@@@@@@@@@@##$%",
"&*=============================--============================;*>",
"&;,'''''''''''''''''''''''))))))))))))))'''''''''''''''''''!~{=]",
"&^////////////////////////))))))))))))))/////////////////////(_:",
"&^////////////////////))))<<<<[[[[[[<<<<))))/////////////////(_:",
"&^////////////////////))))<<<<[[[[[[<<<<))))/////////////////(_:",
"&^//////////////////))<<<<[[[[[[[[[[[[[[<<<<))///////////////(_:",
"&^//////////////////))<<<<[[[[[[[[[[[[[[<<<<))///////////////}_:",
"&^////////////////))<<<<[[[[||||||||||[[[[<<<<))/////////////1^:",
"&^////////////////))<<<<[[[[||||||||||[[[[<<<<))//////////////^:",
"&^////////////////))<<[[[[||||||||||||||[[[[<<))//////////////^:",
"&^////////////////))<<[[[[||||||||||||||[[[[<<))//////////////^:",
"&^////////////////))<<[[||||||||||||||||||[[<<))//////////////^:",
"&^////////////////))<<[[||||||||||||||||||[[<<))//////////////^:",
"&^//////////))))))2222[[||||||||||||||||||[[2222))))))////////^:",
"&^//////////))))))2222[[||||||||||||||||||[[2222))))))////////^:",
"&^////////))<<<<<<223333333344444444443333333322<<<<<<))//////^:",
"&^////////))<<<<<<223333333344444444443333333322<<<<<<))//////^:",
"&^//////))<<[[[[[[[[[[3333444444444444443333[[[[[[[[[[<<))////^:",
"&^//////))<<[[[[[[[[[[3333444444444444443333[[[[[[[[[[<<))////^:",
"&^////////))<<[[||||||||||||||||||||||||||||||||||[[<<))//////^:",
"&^////////))<<[[||||||||||||||||||||||||||||||||||[[<<))//////^:",
"&^//////////))))<<<<[[[[||||||||||||||||||[[[[<<<<))))////////5:",
"&^//////////))))<<<<[[[[||||||||||||||||||[[[[<<<<))))////////6:",
"&^//////////7788))))))))))<<<<<<<<<<<<<<))))))))))8877////////':",
"&^//////////7788))))))))))<<<<<<<<<<<<<<))))))))))8877////////':",
"&^//////////9900880000aaaaaaaabbbbbbaaaaaaaa0000880099////////':",
"&^//////////9900880000aaaaaaaabbbbbbaaaaaaaa0000880099////////':",
"&^//////////99007700aaaaaaaaaaaaaaaaaaaaaaaaaa00770099////////':",
"&^//////////99007700aaaaaaaaaaaaaaaaaaaaaaaaaa00770099////////':",
"c=dddddddddddd9999eeff9999ggaabbbbbbaagg9999ffee9999ddddddddddhi",
"&jkkkkkkkkkkkk9999eeff9999ggaabbbbbbaagg9999ffee9999kkkkkkkkkkdl",
"&^//////////////99eeaabbmm9999bbbbbb9999mmbbaaee99////////////':",
"&^//////////////99eeaabbmm9999bbbbbb9999mmbbaaee99////////////':",
"no//////////////pp9900aabbaabbbbbbbbbbaabbaa0099pp////////////':",
"no//////////////pp9900aabbaabbbbbbbbbbaabbaa0099pp////////////':",
"no////////////ppqqrr8800aa00ssttttttss00aa0088rrqqpp//////////':",
"no////////////ppqqrr8800aa00ssttttttss00aa0088rrqqpp//////////!:",
"no//////////ppqquurrrr8888ssttssssssttss8888rrrruuqqpp////////~:",
"no//////////ppqquurrrr8888ssttssssssttss8888rrrruuqqpp////////v:",
"no//////////ppqquuwwrrrr88ss8888ss8888ss88rrrrwwuuqqpp////////v:",
"no//////////ppqquuwwrrrr88ss8888ss8888ss88rrrrwwuuqqpp////////v:",
"no//////////ppqqqquuqqrrxx8888tttttt8888xxrrqquuqqqqpp////////v:",
"no//////////ppqqqquuqqrrxx8888tttttt8888xxrrqquuqqqqpp////////v:",
"no////////////ppqqqqppuurrxx88ssttss88xxrruuppqqqqpp//////////v:",
"no////////////ppqqqqppuurrxx88ssttss88xxrruuppqqqqpp//////////vy",
"no////////////zzppppppqquuxxxx88ss88xxxxuuqqppppppzz//////////vy",
"no////////////zzppppppqquuxxxx88ss88xxxxuuqqppppppzz//////////vy",
"no////////////zzzzppqqAAqquuuuuu88uuuuuuqqAAqqppzzzz//////////vy",
"no////////////zzzzppqqAAqquuuuuu88uuuuuuqqAAqqppzzzz//////////vy",
"no//////////zzzzzzppqqqqAAAAAABBBBBBAAAAAAqqqqppzzzzzz////////vy",
"no//////////zzzzzzppqqqqAAAAAABBBBBBAAAAAAqqqqppzzzzzz////////vy",
"no//////////zzzzzzppqquuuuuuwwwwwwwwwwuuuuuuqqppzzzzzz////////vy",
"no//////////zzzzzzppqquuuuuuwwwwwwwwwwuuuuuuqqppzzzzzz////////vy",
"no//////////zzzzzzzzppqquuwwwwwwwwwwwwwwuuqqppzzzzzzzz////////vy",
"no//////////zzzzzzzzppqquuwwwwwwwwwwwwwwuuqqppzzzzzzzz////////vy",
"no//////////zzzzzzzzCCAADDDDAAppppppAADDDDAACCzzzzzzzz////////vy",
"no//////////zzzzzzzzCCAADDDDAAppppppAADDDDAACCzzzzzzzz////////vy",
"no////////////zz//////CCEEEEFFCCG/CCFFEEEECC//////zz//////////vy",
"no////////////zz//////CCEEEEFFCCG/CCFFEEEECC//////zz//////////vy",
"no////////////////////CCHHHHEECCG/CCEEHHHHCC//////////////////vy",
"no////////////////////CCHHHHEECCG/CCEEHHHHCC//////////////////vy",
"%IvvvvvvvvvvvvvvvvvvvvvvCCCCCCJKLvvvCCCCCCvvvvvvvvvvvvvvvvvvvv5$",
"MN::::::::::::::::::::::CCCCCCOPQRRRCCCCCCRRRRRRRRRRRRRRRRRRRRS&"};
