/* XPM */
static char * tile_0103_xpm[] = {
"64 64 90 1",
" 	c #637796",
".	c #7385A2",
"+	c #7587A3",
"@	c #8292AD",
"#	c #8091AB",
"$	c #7F90AB",
"%	c #677B99",
"&	c #647897",
"*	c #8F9FB8",
"=	c #92A2BA",
"-	c #92A1B9",
";	c #91A1B9",
">	c #7183A0",
",	c #9FADC3",
"'	c #A0AEC3",
")	c #97A7BD",
"!	c #96A5BD",
"~	c #9CABC1",
"{	c #A1AEC3",
"]	c #A3B0C5",
"^	c #A6B3C8",
"/	c #A4B1C6",
"(	c #7486A2",
"_	c #9BAAC0",
":	c #C0CBDC",
"<	c #C2CCDC",
"[	c #C1CCDC",
"}	c #C1CBDC",
"|	c #ADB9CD",
"1	c #A6B5CA",
"2	c #B6C3D6",
"3	c #B6C2D4",
"4	c #97A6BD",
"5	c #7486A3",
"6	c #AFBBCF",
"7	c #A9B7CB",
"8	c #B7C4D6",
"9	c #9CAAC0",
"0	c #C0CBDB",
"a	c #8B9BB4",
"b	c #C1CCDB",
"c	c #7586A3",
"d	c #D0D5DD",
"e	c #C3CCDB",
"f	c #CCD2DD",
"g	c #B9C5D7",
"h	c #C7CFDD",
"i	c #BDC8D9",
"j	c #7687A3",
"k	c #5A6988",
"l	c #262B44",
"m	c #EAA56C",
"n	c #9DABC1",
"o	c #9EACC2",
"p	c #BD6C4A",
"q	c #C1CBDB",
"r	c #C3CCDA",
"s	c #7A8CA7",
"t	c #A1AEC2",
"u	c #9CABC2",
"v	c #9DACC2",
"w	c #763B36",
"x	c #A2AEC1",
"y	c #95A4BC",
"z	c #899AB3",
"A	c #95A5BD",
"B	c #B8C2D4",
"C	c #B6C2D5",
"D	c #B7C2D5",
"E	c #BAC4D3",
"F	c #7A8BA7",
"G	c #C1CBDA",
"H	c #697C9A",
"I	c #8D9DB5",
"J	c #AAB7CB",
"K	c #8192AC",
"L	c #52607C",
"M	c #C4CDDB",
"N	c #8293AC",
"O	c #8697B0",
"P	c #A7B4C8",
"Q	c #9AA9BF",
"R	c #A1AFC5",
"S	c #637797",
"T	c #6D7F9D",
"U	c #6C7F9C",
"V	c #7386A1",
"W	c #8798B1",
"X	c #6B7E9C",
"Y	c #6A7D9B",
" .++++++++++++++++++++++++++++++++++++++++++++@@@@@@@@@@@@@@##$%",
"&*=============================--============================;*>",
"&;,''''''''''''''''''''''''''')!~'''''''''''{'''''''''''''']^/=(",
"&_:::::<<<[}}}}}::::::::::::::|12::::::::::::::::::::::::::::345",
"&_::::::[<::::::}}}}}}}}}}}}}}678}}}}}}}}::::::::::::::::::::345",
"&90::::aaaaaaaaaaaaaaaaaaaaaaaaaaaaaaaaaaaaaaaaaaaaaaaab[::::34c",
"&90::::ad:::aaaaaaaaaaaaaaaaaaaaaaaaaaaaaaaaaaaaaaaa::a:e::::345",
"&_0::::af:::aaaaaaaaaaaaaaaaaaaaaaaaaaaaaaaaaaaaaaaa::a:e::::g4c",
"&_0::::ah:::aaaaaaaaaaaaaaaaaaaaaaaaaaaaaaaaaaaaaaaa::a:e::::i_j",
"&_0::::a::::aaaaaaaaaaaaaaaaaaaaaaaaaaaaaaaaaaaaaaaa::a:e:::::_j",
"&_0::::a::::kkkkkkkkkkkkkkkkkkkkkkkkkkkkkkkkkkkkkkkk::a:e:::::_j",
"&_0::::a::::kkkkkkkkkkkkkkkkkkkkkkkkkkkkkkkkkkkkkkkk::a:e:::::_j",
"&_0::::a::::kkkkkkkkkkkkkkkkkkkkkkkkkkkkkkkkkkkkkkkk::a:e:::::_j",
"&_0::::a::::kkkkkkkkkkkkkkkkkkkkkkkkkkkkkkkkkkkkkkkk::a:e:::::_j",
"&_:::::a::::kkkkkkkkkkkkkkkkkkkkkkkkkkkkkkkkkkkkkkkk::a:e:::::_j",
"&_:::::a::::kkkkkkkkkkkkkkkkkkkkkkkkkkkkkkkkkkkkkkkk::a:e:::::_j",
"&_:::::a::::kkkkkkkkkkkkkkkkkkkkkkkkkkkkkkkkkkkkkkkk::a:e:::::_c",
"&_:::::a::::kkkkkkkkkkkkkkkkkkkkkkkkkkkkkkkkkkkkkkkk::a:e:::::_5",
"&_:::::a::::llllmmmmmmmmllllllllllllllllmmmmmmmmllll::a:e:::::_5",
"&_:::::a::::llllmmmmmmmmllllllllllllllllmmmmmmmmllll::a:e:::::_5",
"&_:::::a::::llllmmmmmmmmllllllllllllllllmmmmmmmmllll::a:e:::::_5",
"&_::::}a::::llllmmmmmmmmllllllllllllllllmmmmmmmmllll::a:e:::::_5",
"&_::::}a::::llllmmmmmmmmllllllllllllllllmmmmmmmmllll::a:e:::::n5",
"&_::::}a::::llllmmmmmmmmllllllllllllllllmmmmmmmmllll::a:e:::::o5",
"&_::::}a::::llllmmmmmmmmllllllllllllllllmmmmmmmmllll::a:e:::::'5",
"&_::::}a::::llllmmmmmmmmllllllllllllllllmmmmmmmmllll::a:e:::::'5",
"&_::::}a::::llllppppppppmmmmmmmmmmmmmmmmppppppppllll::a:e:::::'5",
"&_::::}a::::llllppppppppmmmmmmmmmmmmmmmmppppppppllll::a:e:::::'5",
"&_0:::}a::::llllppppppppmmmmmmmmmmmmmmmmppppppppllll::a:e:::::'5",
"&_q:::}a::::llllppppppppmmmmmmmmmmmmmmmmppppppppllll::a:r:::::'5",
"s=tuuuva::::llllppppppppwwwwppppppppwwwwppppppppllll::a:xuuuuuyz",
"&ABCCCDa::::llllppppppppwwwwppppppppwwwwppppppppllll:::aECCCCCuF",
"&_G:::}a::::llllppppppppwwwwppppppppwwwwppppppppllll:::ae:::::'5",
"&_G:::}a::::llllppppppppwwwwppppppppwwwwppppppppllll:::ae:::::'5",
"HIG:::}a::::llllppppppppllllllllllllllllppppppppllll:::ae:::::'5",
"HIG:::}a::::llllppppppppllllllllllllllllppppppppllll:::ae:::::'5",
"HIG:::}a::::llllppppppppllllllllllllllllppppppppllll:::ae:::::'5",
"HI0:::}a::::llllppppppppllllllllllllllllppppppppllll:::ae:::::]5",
"HI::::}a::::llllppppppppmmmmmmmmmmmmmmmmppppppppllll:::ae:::::^5",
"HI::::}a::::llllppppppppmmmmmmmmmmmmmmmmppppppppllll:::ae:::::J5",
"HI::::}a::::llllppppppppmmmmmmmmmmmmmmmmppppppppllll:::ae:::::J5",
"HI::::}a::::llllppppppppmmmmmmmmmmmmmmmmppppppppllll:::ae:::::J5",
"HI::::}a::::llllppppppppwwwwppppppppwwwwppppppppllll:::ae:::::J5",
"HI::::}a::::llllppppppppwwwwppppppppwwwwppppppppllll:::ae:::::J5",
"HI::::}a::::llllppppppppwwwwppppppppwwwwppppppppllll:::ae:::::J5",
"HI::::}a::::llllppppppppwwwwppppppppwwwwppppppppllll:::ae:::::JK",
"HI::::}a::::llllppppppppllllllllllllllllppppppppllll:::ae:::::JK",
"HI::::}a::::llllppppppppllllllllllllllllppppppppllll:::ae:::::JK",
"HI::::}a::::llllppppppppllllllllllllllllppppppppllll:::ae:::::JK",
"HI::::}a::::llllppppppppllllllllllllllllppppppppllll:::ae:::::JK",
"HI::::}a::::llllwwwwwwwwwwwwwwwwwwwwwwwwwwwwwwwwllll:::ae:::::JK",
"HI::::}a::::llllwwwwwwwwwwwwwwwwwwwwwwwwwwwwwwwwllll:::ae:::::JK",
"HI::::}a::::llllwwwwwwwwwwwwwwwwwwwwwwwwwwwwwwwwllll:::ae:::::JK",
"HI::::}a::::llllwwwwwwwwwwwwwwwwwwwwwwwwwwwwwwwwllll:::ae:::::JK",
"HI::::}aaaaa::::::::::::::::::::::::::::::::::::::::aaaae:::::JK",
"HI::::}aaaaa::::::::::::::::::::::::::::::::::::::::aaaae:::::JK",
"HI::::}aaaaa::::::::::::::::::::::::::::::::::::::::aaaae:::::JK",
"HI::::}aaaaa::::::::::::::::::::::::::::::::::::::::aaaae:::::JK",
"HI::::}aLLLLLLLLLLLLLLLLLLLLLLLLLLLLLLLLLLLLLLLLLLLLLLLLe:::::JK",
"HI::::}aLLLLLLLLLLLLLLLLLLLLLLLLLLLLLLLLLLLLLLLLLLLLLLLLe:::::JK",
"HI::::}aLLLLLLLLLLLLLLLLLLLLLLLLLLLLLLLLLLLLLLLLLLLLLLLLe:::::JK",
"HI::::}aLLLLLLLLLLLLLLLLLLLLLLLLLLLLLLLLLLLLLLLLLLLLLLLLM:::::JN",
"%OJJJJJJJJJJJJJJJJJJJJJJJJJJJJPQRJJJJJJJJJJJJJJJJJJJJJJJJJJJJJn$",
"ST55555555555555555555555UUUUUVWXUUUUUUUUUUUUUUUUUUUUUUUUUUUUUY&"};
