/* XPM */
static char * tile_0000_xpm[] = {
"64 64 67 1",
" 	c #637796",
".	c #7385A2",
"+	c #7587A3",
"@	c #8292AD",
"#	c #8091AB",
"$	c #7F90AB",
"%	c #677B99",
"&	c #647897",
"*	c #8F9FB8",
"=	c #92A2BA",
"-	c #92A1B9",
";	c #91A1B9",
">	c #7183A0",
",	c #9FADC3",
"'	c #A0AEC3",
")	c #97A7BD",
"!	c #96A5BD",
"~	c #9CABC1",
"{	c #A3B0C5",
"]	c #A6B3C8",
"^	c #A4B1C6",
"/	c #7486A2",
"(	c #9BAAC0",
"_	c #C0CBDC",
":	c #ADB9CD",
"<	c #A6B5CA",
"[	c #B6C3D6",
"}	c #B6C2D4",
"|	c #97A6BD",
"1	c #7486A3",
"2	c #AEBBCF",
"3	c #A8B6CB",
"4	c #B9C5D7",
"5	c #BDC8D9",
"6	c #9DABC1",
"7	c #9EACC2",
"8	c #7A8CA7",
"9	c #9CABC2",
"0	c #98A7BF",
"a	c #97A7BE",
"b	c #9BAAC1",
"c	c #95A4BC",
"d	c #899AB3",
"e	c #95A5BD",
"f	c #B6C2D5",
"g	c #A8B5CA",
"h	c #A4B2C8",
"i	c #AFBCD1",
"j	c #7A8BA7",
"k	c #697C9A",
"l	c #8D9DB5",
"m	c #9FADC4",
"n	c #AAB7CB",
"o	c #A1AFC5",
"p	c #B0BDD2",
"q	c #8192AC",
"r	c #8697B0",
"s	c #A6B4C8",
"t	c #99A8BF",
"u	c #A0AFC5",
"v	c #637797",
"w	c #6D7F9D",
"x	c #6C7F9C",
"y	c #7386A1",
"z	c #8798B1",
"A	c #6B7E9C",
"B	c #6A7D9B",
" .++++++++++++++++++++++++++++++++++++++++++++@@@@@@@@@@@@@@##$%",
"&*=============================--============================;*>",
"&;,''''''''''''''''''''''''''')!~''''''''''''''''''''''''''{]^=/",
"&(____________________________:<[____________________________}|1",
"&(____________________________23[____________________________}|1",
"&(____________________________23[____________________________}|1",
"&(____________________________23[____________________________}|1",
"&(____________________________23[____________________________4|1",
"&(____________________________23[____________________________5(1",
"&(____________________________23[_____________________________(1",
"&(____________________________23[_____________________________(1",
"&(____________________________23[_____________________________(1",
"&(____________________________23[_____________________________(1",
"&(____________________________23[_____________________________(1",
"&(____________________________23[_____________________________(1",
"&(____________________________23[_____________________________(1",
"&(____________________________23[_____________________________(1",
"&(____________________________23[_____________________________(1",
"&(____________________________23[_____________________________(1",
"&(____________________________23[_____________________________(1",
"&(____________________________23[_____________________________(1",
"&(____________________________23[_____________________________(1",
"&(____________________________23[_____________________________61",
"&(____________________________23[_____________________________71",
"&(____________________________23[_____________________________'1",
"&(____________________________23[_____________________________'1",
"&(____________________________23[_____________________________'1",
"&(____________________________23[_____________________________'1",
"&(____________________________23[_____________________________'1",
"&(____________________________23[_____________________________'1",
"8=99999999999999999999999999990ab99999999999999999999999999999cd",
"&effffffffffffffffffffffffffffghifffffffffffffffffffffffffffff9j",
"&(____________________________23[_____________________________'1",
"&(____________________________23[_____________________________'1",
"kl____________________________23[_____________________________'1",
"kl____________________________23[_____________________________'1",
"kl____________________________23[_____________________________'1",
"kl____________________________23[_____________________________{1",
"kl____________________________4m[_____________________________]1",
"kl____________________________4m[_____________________________n1",
"kl____________________________4m[_____________________________n1",
"kl____________________________4m[_____________________________n1",
"kl____________________________4op_____________________________n1",
"kl____________________________4op_____________________________n1",
"kl____________________________4op_____________________________n1",
"kl____________________________4op_____________________________nq",
"kl____________________________4op_____________________________nq",
"kl____________________________4op_____________________________nq",
"kl____________________________4op_____________________________nq",
"kl____________________________4op_____________________________nq",
"kl____________________________4op_____________________________nq",
"kl____________________________4op_____________________________nq",
"kl____________________________4op_____________________________nq",
"kl____________________________4op_____________________________nq",
"kl____________________________4op_____________________________nq",
"kl____________________________4op_____________________________nq",
"kl____________________________4op_____________________________nq",
"kl____________________________4op_____________________________nq",
"kl____________________________4op_____________________________nq",
"kl____________________________4op_____________________________nq",
"kl____________________________4op_____________________________nq",
"kl____________________________4op_____________________________nq",
"%rnnnnnnnnnnnnnnnnnnnnnnnnnnnnstunnnnnnnnnnnnnnnnnnnnnnnnnnnnn6$",
"vw11111111111111111111111xxxxxyzAxxxxxxxxxxxxxxxxxxxxxxxxxxxxxB&"};
