/* XPM */
static char * tile_0037_xpm[] = {
"64 64 27 1",
" 	c #3D4C6C",
".	c #425170",
"+	c #485675",
"@	c #3E4D6C",
"#	c #5A6988",
"$	c #566584",
"%	c #3F4E6E",
"&	c #647495",
"*	c #7587AC",
"=	c #6B7C9E",
"-	c #68789A",
";	c #7384A8",
">	c #6F80A3",
",	c #7586AB",
"'	c #C0CBDC",
")	c #8B9BB4",
"!	c #6B7B9D",
"~	c #ABBAD2",
"{	c #41506F",
"]	c #6D7EA0",
"^	c #7687AC",
"/	c #7082A6",
"(	c #7081A4",
"_	c #7788AD",
":	c #404F6E",
"<	c #3D4D6C",
"[	c #465574",
" ............................................................++@",
".############################################################$$%",
".##############################################################.",
".##############################################################.",
".##############################################################.",
".####&*=-------------------------------------------------;;####.",
".####&*=------------------------------------------------->>####.",
".####&,''''''''''''''''''''''''''''''''''''''''''''''''''--####.",
".####&,''''''''''''''''''''''''''''''''''''''''''''''''''--####.",
".####&,''''''''''''''''''''''''''''''''''''''''''''''''''--####.",
".####&,''''''''''''''''''''''''''''''''''''''''''''''''''--####.",
".####&,''''''''''''''''''''''''''''''''''''''''''''''))))--####.",
".####&,''''''''''''''''''''''''''''''''''''''''''''''))))--####.",
"+####!;''''''''''''''''''''''''''''''''''''''''''''''))))--####.",
"+####!;'''''''~~~~~~~~~~~~~~~~~~~~~~~~~~~~~~~~~~~~)))))))--####.",
"+####!;'''''''~~~~~~~~~~~~~~~~~~~~~~~~~~~~~~~~~~~~)))))))--####.",
"+####!;'''''''~~~~~~~~~~~~~~~~~~~~~~~~~~~~~~~~~~~~)))))))--####.",
"+####!;'''''''~~~~~~~~~~~~~~~~~~~~~~~~~~~~~~~~~~~~)))))))--####.",
"+####!;'''''''~~~~~~~~~~~~~~~~~~~~~~~~~~~~~~~~~~~~)))))))--####.",
"+####!;'''''''~~~~~~~~~~~~~~~~~~~~~~~~~~~~~~~~~~~~)))))))--####.",
"+####!;'''''''~~~~~~~~~~~~~~~~~~~~~~~~~~~~~~~~~~~~)))))))--####.",
"+####!;'''''''~~~~~~~~~~~~~~~~~~~~~~~~~~~~~~~~~~~~)))))))--####.",
"+####!;'''''''~~~~~~~~~~~~~~~~~~~~~~~~~~~~~~~~~~~~)))))))--####.",
"+####!;'''''''~~~~~~~~~~~~~~~~~~~~~~~~~~~~~~~~~~~~)))))))--####.",
"+####!;'''''''~~~~~~~~~~~~~~~~~~~~~~~~~~~~~~~~~~~~)))))))--####.",
"+####!;'''''''~~~~~~~~~~~~~~~~~~~~~~~~~~~~~~~~~~~~)))))))--####.",
"+####!;'''''''~~~~~~~~~~~~~~~~~~~~~~~~~~~~~~~~~~~~)))))))--####.",
"+####!;'''''''~~~~~~~~~~~~~~~~~~~~~~~~~~~~~~~~~~~~)))))))--####.",
"+####!;'''''''~~~~~~~~~~~~~~~~~~~~~~~~~~~~~~~~~~~~)))))))--###$%",
"+####!;'''''''~~~~~~~~~~~~~~~~~~~~~~~~~~~~~~~~~~~~)))))))--####{",
"+####!;'''''''~~~~~~~~~~~~~~~~~~~~~~~~~~~~~~~~~~~~)))))))--####.",
"+####!;'''''''~~~~~~~~~~~~~~~~~~~~~~~~~~~~~~~~~~~~)))))))--####.",
"+####!;'''''''~~~~~~~~~~~~~~~~~~~~~~~~~~~~~~~~~~~~)))))))--####.",
"+####!;'''''''~~~~~~~~~~~~~~~~~~~~~~~~~~~~~~~~~~~~)))))))--####.",
"+####!;'''''''~~~~~~~~~~~~~~~~~~~~~~~~~~~~~~~~~~~~)))))))--####.",
"+####!;'''''''~~~~~~~~~~~~~~~~~~~~~~~~~~~~~~~~~~~~)))))))--####.",
"+####!;'''''''~~~~~~~~~~~~~~~~~~~~~~~~~~~~~~~~~~~~)))))))--####.",
"+####!;'''''''~~~~~~~~~~~~~~~~~~~~~~~~~~~~~~~~~~~~)))))))--####.",
"+####!;'''''''~~~~~~~~~~~~~~~~~~~~~~~~~~~~~~~~~~~~)))))))--####.",
"+####!;'''''''~~~~~~~~~~~~~~~~~~~~~~~~~~~~~~~~~~~~)))))))--####.",
"+####!;'''''''~~~~~~~~~~~~~~~~~~~~~~~~~~~~~~~~~~~~)))))))--####.",
"+####!;'''''''~~~~~~~~~~~~~~~~~~~~~~~~~~~~~~~~~~~~)))))))--####.",
"+####!;'''''''~~~~~~~~~~~~~~~~~~~~~~~~~~~~~~~~~~~~)))))))--####.",
"+####!;'''''''~~~~~~~~~~~~~~~~~~~~~~~~~~~~~~~~~~~~)))))))--####.",
"+####!;'''''''~~~~~~~~~~~~~~~~~~~~~~~~~~~~~~~~~~~~)))))))--####.",
"+####!;'''''''~~~~~~~~~~~~~~~~~~~~~~~~~~~~~~~~~~~~)))))))--####.",
"+####!;'''''''~~~~~~~~~~~~~~~~~~~~~~~~~~~~~~~~~~~~)))))))--####.",
"+####!;'''''''~~~~~~~~~~~~~~~~~~~~~~~~~~~~~~~~~~~~)))))))--####.",
"+####!;'''''''~~~~~~~~~~~~~~~~~~~~~~~~~~~~~~~~~~~~)))))))--####.",
"+####!;'''''''~~~~~~~~~~~~~~~~~~~~~~~~~~~~~~~~~~~~)))))))--####.",
"+####!;''''))))))))))))))))))))))))))))))))))))))))))))))--####.",
"+####!;''''))))))))))))))))))))))))))))))))))))))))))))))--####.",
"+####!;''''))))))))))))))))))))))))))))))))))))))))))))))--####.",
"+####!;))))))))))))))))))))))))))))))))))))))))))))))))))--####.",
"+####!;))))))))))))))))))))))))))))))))))))))))))))))))))--####.",
"+####!;))))))))))))))))))))))))))))))))))))))))))))))))))--####.",
"+####!;))))))))))))))))))))))))))))))))))))))))))))))))))--####.",
"+####]^--------------------------------------------------//####.",
"+####(_--------------------------------------------------==####.",
"+##############################################################.",
"+##############################################################.",
"+##############################################################.",
"+###########################################################$$$:",
"<...........................................................++[<"};
